<?xml version="1.0" standalone="no"?>
<!DOCTYPE svg PUBLIC "-//W3C//DTD SVG 1.1//EN" "http://www.w3.org/Graphics/SVG/1.1/DTD/svg11.dtd" >
<svg xmlns="http://www.w3.org/2000/svg">
<metadata>
Created by FontForge 20120731 at Fri Sep 30 02:28:37 2016
 By admin
</metadata>
<defs>
<font id="iconfont" horiz-adv-x="1024" >
  <font-face 
    font-family="iconfont"
    font-weight="500"
    font-stretch="normal"
    units-per-em="1024"
    panose-1="2 0 6 3 0 0 0 0 0 0"
    ascent="896"
    descent="-128"
    x-height="792"
    bbox="0 -128 1024 896"
    underline-thickness="50"
    underline-position="-100"
    unicode-range="U+0078-E64C"
  />
<missing-glyph horiz-adv-x="374" 
d="M34 0v682h272v-682h-272zM68 34h204v614h-204v-614z" />
    <glyph glyph-name=".notdef" horiz-adv-x="374" 
d="M34 0v682h272v-682h-272zM68 34h204v614h-204v-614z" />
    <glyph glyph-name=".null" horiz-adv-x="0" 
 />
    <glyph glyph-name="nonmarkingreturn" horiz-adv-x="341" 
 />
    <glyph glyph-name="x" unicode="x" horiz-adv-x="1001" 
d="M281 543q-27 -1 -53 -1h-83q-18 0 -36.5 -6t-32.5 -18.5t-23 -32t-9 -45.5v-76h912v41q0 16 -0.5 30t-0.5 18q0 13 -5 29t-17 29.5t-31.5 22.5t-49.5 9h-133v-97h-438v97zM955 310v-52q0 -23 0.5 -52t0.5 -58t-10.5 -47.5t-26 -30t-33 -16t-31.5 -4.5q-14 -1 -29.5 -0.5
t-29.5 0.5h-32l-45 128h-439l-44 -128h-29h-34q-20 0 -45 1q-25 0 -41 9.5t-25.5 23t-13.5 29.5t-4 30v167h911zM163 247q-12 0 -21 -8.5t-9 -21.5t9 -21.5t21 -8.5q13 0 22 8.5t9 21.5t-9 21.5t-22 8.5zM316 123q-8 -26 -14 -48q-5 -19 -10.5 -37t-7.5 -25t-3 -15t1 -14.5
t9.5 -10.5t21.5 -4h37h67h81h80h64h36q23 0 34 12t2 38q-5 13 -9.5 30.5t-9.5 34.5q-5 19 -11 39h-368zM336 498v228q0 11 2.5 23t10 21.5t20.5 15.5t34 6h188q31 0 51.5 -14.5t20.5 -52.5v-227h-327z" />
    <glyph glyph-name="uniE600" unicode="&#xe600;" 
d="M512 227l-282 281l-80 -80l322 -322l40 -40l362 362l-80 80z" />
    <glyph glyph-name="uniE601" unicode="&#xe601;" 
d="M585 384l-281 -282l80 -80l362 362l-362 362l-80 -80z" />
    <glyph glyph-name="uniE602" unicode="&#xe602;" 
d="M512 457l282 -281l80 80l-362 362l-362 -362l80 -80z" />
    <glyph glyph-name="uniE603" unicode="&#xe603;" 
d="M439 384l281 282l-80 80l-362 -362l362 -362l80 80z" />
    <glyph glyph-name="uniE604" unicode="&#xe604;" 
d="M811 341h-256v-256h-86v256h-256v86h256v256h86v-256h256v-86z" />
    <glyph glyph-name="uniE605" unicode="&#xe605;" 
d="M512 811q-116 0 -214.5 -57t-155.5 -155.5t-57 -214.5t57 -214.5t155.5 -155.5t214.5 -57t214.5 57t155.5 155.5t57 214.5t-57 214.5t-155.5 155.5t-214.5 57zM171 384q0 93 45.5 171.5t124 124t171.5 45.5q116 0 209 -72l-478 -478q-72 93 -72 209zM512 43
q-116 0 -209 72l478 478q72 -93 72 -209q0 -93 -45.5 -171.5t-124 -124t-171.5 -45.5z" />
    <glyph glyph-name="uniE606" unicode="&#xe606;" 
d="M512 853q96 0 182.5 -37t149.5 -100t100 -149.5t37 -182.5t-37 -182.5t-100 -149.5t-149.5 -100t-182.5 -37t-182.5 37t-149.5 100t-100 149.5t-37 182.5t37 182.5t100 149.5t149.5 100t182.5 37zM512 768q-78 0 -149 -30.5t-122.5 -82t-82 -122.5t-30.5 -149t30.5 -149
t82 -122.5t122.5 -82t149 -30.5t149 30.5t122.5 82t82 122.5t30.5 149t-30.5 149t-82 122.5t-122.5 82t-149 30.5zM655.5 512q17.5 0 30 -12.5t12.5 -30t-12 -30.5l-181 -181q-13 -12 -30 -12q-18 0 -31 12l-90 91q-13 12 -13 30t12.5 30.5t30.5 12.5t30 -13l61 -60l150 151
q13 12 30.5 12z" />
    <glyph glyph-name="uniE607" unicode="&#xe607;" 
d="M512 853q96 0 182.5 -37t149.5 -100t100 -149.5t37 -182.5t-37 -182.5t-100 -149.5t-149.5 -100t-182.5 -37t-182.5 37t-149.5 100t-100 149.5t-37 182.5t37 182.5t100 149.5t149.5 100t182.5 37zM512 768q-78 0 -149 -30.5t-122.5 -82t-82 -122.5t-30.5 -149t30.5 -149
t82 -122.5t122.5 -82t149 -30.5t149 30.5t122.5 82t82 122.5t30.5 149t-30.5 149t-82 122.5t-122.5 82t-149 30.5zM633 548q17 0 30 -12.5t13 -30.5t-13 -30l-91 -91l91 -90q13 -13 13 -30q0 -18 -13 -30.5t-30.5 -12.5t-29.5 12l-91 91l-90 -91q-13 -12 -31 -12
q-17 0 -29.5 12.5t-12.5 29.5q0 18 12 31l91 90l-91 91q-12 12 -12 29.5t12.5 30.5t30 13t30.5 -13l90 -91l91 91q12 13 30 13z" />
    <glyph glyph-name="uniE608" unicode="&#xe608;" 
d="M811 622l-61 61l-238 -239l-238 239l-61 -61l239 -238l-239 -238l61 -61l238 239l238 -239l61 61l-239 238z" />
    <glyph glyph-name="uniE609" unicode="&#xe609;" 
d="M809 502q-11 110 -97 186t-203 76q-119 0 -206 -78t-94 -190q-55 -23 -89.5 -73t-34.5 -111v-24q0 -83 58.5 -141.5t140.5 -58.5h466q82 0 140.5 58.5t58.5 141.5v24q0 66 -39.5 118.5t-100.5 71.5zM887 288q0 -57 -40 -97.5t-97 -40.5h-466q-57 0 -97 40.5t-40 97.5v24
q0 47 28.5 83.5t73.5 48.5q12 3 17.5 8.5t4.5 9.5l-1 5l2 40q12 83 79.5 139.5t157.5 56.5q91 0 158.5 -57t78.5 -141l2 -35q1 -1 -0.5 -5t4 -10t17.5 -8q4 -1 9 -1q47 -9 78 -47t31 -87v-24zM539 510q-8 8 -21.5 8t-22.5 -8l-111 -112q-9 -9 -9 -22t9 -22t22 -9t22 9l56 56
v-190q0 -13 9.5 -22.5t22.5 -9.5t22 9.5t9 22.5v192l59 -58q9 -9 22 -9t22.5 9t9.5 22t-10 22z" />
    <glyph glyph-name="uniE60A" unicode="&#xe60a;" 
d="M809 502q-11 110 -97 186t-203 76q-119 0 -206 -78t-94 -190q-55 -23 -89.5 -73t-34.5 -111v-24q0 -83 58.5 -141.5t140.5 -58.5h466q82 0 140.5 58.5t58.5 141.5v24q0 66 -39.5 118.5t-100.5 71.5zM887 288q0 -57 -40 -97.5t-97 -40.5h-466q-57 0 -97 40.5t-40 97.5v24
q0 47 28.5 83.5t73.5 48.5q12 3 17.5 8.5t4.5 9.5l-1 5l2 40q12 83 79.5 139.5t157.5 56.5q91 0 158.5 -57t78.5 -141l2 -35q1 -1 -0.5 -5t4 -10t17.5 -8q4 -1 9 -1q47 -9 78 -47t31 -87v-24zM539 197q-8 -9 -21.5 -9t-22.5 9l-111 111q-9 9 -9 22t9 22.5t22 9.5t22 -9
l56 -56v190q0 13 9.5 22t22.5 9t22 -9t9 -22v-193l59 59q9 9 22 9t22.5 -9.5t9.5 -22.5t-10 -22z" />
    <glyph glyph-name="uniE60B" unicode="&#xe60b;" 
d="M384 206l-178 178l-60 -60l238 -239l512 512l-60 61z" />
    <glyph glyph-name="uniE60C" unicode="&#xe60c;" 
d="M469 171h86v256h-86v-256zM512 811q-116 0 -214.5 -57t-155.5 -155.5t-57 -214.5t57 -214.5t155.5 -155.5t214.5 -57t214.5 57t155.5 155.5t57 214.5t-57 214.5t-155.5 155.5t-214.5 57zM512 43q-93 0 -171.5 45.5t-124 124t-45.5 171.5t45.5 171.5t124 124t171.5 45.5
t171.5 -45.5t124 -124t45.5 -171.5t-45.5 -171.5t-124 -124t-171.5 -45.5zM469 512h86v85h-86v-85z" />
    <glyph glyph-name="uniE60D" unicode="&#xe60d;" 
d="M512 811q-116 0 -214.5 -57t-155.5 -155.5t-57 -214.5t57 -214.5t155.5 -155.5t214.5 -57t214.5 57t155.5 155.5t57 214.5t-57 214.5t-155.5 155.5t-214.5 57z" />
    <glyph glyph-name="uniE60E" unicode="&#xe60e;" 
d="M128 683h768q18 0 30.5 -12.5t12.5 -30.5t-12.5 -30.5t-30.5 -12.5h-768q-18 0 -30.5 12.5t-12.5 30.5t12.5 30.5t30.5 12.5zM128 171h768q18 0 30.5 -12.5t12.5 -30.5t-12.5 -30.5t-30.5 -12.5h-768q-18 0 -30.5 12.5t-12.5 30.5t12.5 30.5t30.5 12.5zM128 427h768
q18 0 30.5 -12.5t12.5 -30.5t-12.5 -30.5t-30.5 -12.5h-768q-18 0 -30.5 12.5t-12.5 30.5t12.5 30.5t30.5 12.5z" />
    <glyph glyph-name="uniE60F" unicode="&#xe60f;" 
d="M512 811q-116 0 -214.5 -57t-155.5 -155.5t-57 -214.5t57 -214.5t155.5 -155.5t214.5 -57t214.5 57t155.5 155.5t57 214.5t-57 214.5t-155.5 155.5t-214.5 57zM512 43q-93 0 -171.5 45.5t-124 124t-45.5 171.5t45.5 171.5t124 124t171.5 45.5t171.5 -45.5t124 -124
t45.5 -171.5t-45.5 -171.5t-124 -124t-171.5 -45.5z" />
    <glyph glyph-name="uniE610" unicode="&#xe610;" 
d="M512 853q96 0 182.5 -37t149.5 -100t100 -149.5t37 -182.5t-37 -182.5t-100 -149.5t-149.5 -100t-182.5 -37t-182.5 37t-149.5 100t-100 149.5t-37 182.5t37 182.5t100 149.5t149.5 100t182.5 37zM512 768q-78 0 -149 -30.5t-122.5 -82t-82 -122.5t-30.5 -149t30.5 -149
t82 -122.5t122.5 -82t149 -30.5t149 30.5t122.5 82t82 122.5t30.5 149t-30.5 149t-82 122.5t-122.5 82t-149 30.5zM713 415q12 -13 12.5 -30.5t-12 -30t-30.5 -12.5h-129l1 -128q0 -18 -13 -31q-12 -12 -30 -12t-30.5 12.5t-12.5 30.5v128h-128q-17 0 -30 12
q-12 13 -12 30.5t12 29.5q13 13 30 13h128v128q0 18 12.5 30.5t30.5 12.5t30.5 -12.5t12.5 -30.5l-1 -128h129q18 0 30 -12z" />
    <glyph glyph-name="uniE611" unicode="&#xe611;" 
d="M753 625q-47 47 -109.5 73.5t-131.5 26.5q-93 0 -171.5 -45.5t-124 -124t-45.5 -171.5t45.5 -171.5t124 -124t171.5 -45.5q118 0 209.5 72t120.5 184h-89q-27 -76 -92.5 -123.5t-148.5 -47.5q-106 0 -181 75t-75 181t75 181t181 75q105 0 180 -76l-137 -137h298v298z" />
    <glyph glyph-name="uniE612" unicode="&#xe612;" 
d="M427 853q78 0 149 -30.5t122.5 -81.5t82 -122.5t30.5 -149.5q0 -67 -22 -128t-62 -111l242 -242q12 -13 12 -31t-12 -30t-30 -12t-31 12l-242 242q-50 -40 -111 -62t-128 -22q-78 0 -149.5 30.5t-122.5 82t-81.5 122.5t-30.5 149t30.5 149.5t81.5 122.5t122.5 81.5
t149.5 30.5zM426.5 768q-60.5 0 -116 -23.5t-95.5 -63.5t-63.5 -95.5t-23.5 -116t23.5 -116t63.5 -95.5t95.5 -63.5t116 -23.5t116 23.5t95.5 63.5t63.5 95.5t23.5 116t-23.5 116t-63.5 95.5t-95.5 63.5t-116 23.5z" />
    <glyph glyph-name="uniE613" unicode="&#xe613;" 
d="M427 853h170q53 0 90.5 -37.5t37.5 -90.5v-42h171q18 0 30.5 -12.5t12.5 -30.5t-12.5 -30.5t-30.5 -12.5h-43v-512q0 -53 -37.5 -90.5t-90.5 -37.5h-426q-53 0 -90.5 37.5t-37.5 90.5v512h-43q-18 0 -30.5 12.5t-12.5 30.5t12.5 30.5t30.5 12.5h171v42q0 53 37.5 90.5
t90.5 37.5zM768 85v512h-512v-512q0 -17 12.5 -29.5t30.5 -12.5h426q18 0 30.5 12.5t12.5 29.5zM597 768h-170q-18 0 -30.5 -12.5t-12.5 -30.5v-42h256v42q0 18 -12.5 30.5t-30.5 12.5z" />
    <glyph glyph-name="uniE614" unicode="&#xe614;" 
d="M512 853q70 0 128.5 -34t93 -93t34.5 -129v-42q0 -18 -12.5 -30.5t-30 -12.5t-30 12.5t-12.5 30.5v42q0 71 -50 121t-121 50t-121 -50t-50 -121v-170h512q53 0 90.5 -37.5t37.5 -90.5v-256q0 -53 -37.5 -90.5t-90.5 -37.5h-682q-53 0 -90.5 37.5t-37.5 90.5v256
q0 53 37.5 90.5t90.5 37.5h85v170q0 70 34.5 129t93 93t128.5 34zM853 341h-682q-18 0 -30.5 -12.5t-12.5 -29.5v-256q0 -18 12.5 -30.5t30.5 -12.5h682q18 0 30.5 12.5t12.5 30.5v256q0 17 -12.5 29.5t-30.5 12.5z" />
    <glyph glyph-name="uniE616" unicode="&#xe616;" 
d="M807 810h-590q-61 0 -104.5 -43.5t-43.5 -104.5v-388q0 -61 43.5 -104.5t104.5 -43.5h137v-199l246 199h207q61 0 104.5 43.5t43.5 104.5v388q0 61 -43.5 104.5t-104.5 43.5zM880 270q0 -24 -17 -41.5t-41 -17.5h-252l-127 -103v103h-241q-24 0 -41 17.5t-17 41.5v407
q0 24 17 41t41 17h620q24 0 41 -17t17 -41v-407zM289 473q0 -19 13.5 -32.5t32.5 -13.5t32.5 13.5t13.5 32.5t-13.5 32.5t-32.5 13.5t-32.5 -13.5t-13.5 -32.5zM466 473q0 -19 13.5 -32.5t32.5 -13.5t32.5 13.5t13.5 32.5t-13.5 32.5t-32.5 13.5t-32.5 -13.5t-13.5 -32.5z
M643 473q0 -19 13.5 -32.5t32.5 -13.5t32.5 13.5t13.5 32.5t-13.5 32.5t-32.5 13.5t-32.5 -13.5t-13.5 -32.5z" />
    <glyph glyph-name="uniE617" unicode="&#xe617;" 
d="M879 166l-53 34q-17 10 -17 30v235q0 95 -57.5 173t-148.5 107q-5 32 -30.5 53.5t-59 21.5t-58.5 -21.5t-31 -54.5q-91 -30 -148.5 -111t-57.5 -180v-223q0 -20 -17 -30l-53 -34q-16 -10 -23 -28t-1.5 -36.5t21 -30t34.5 -11.5h223v-6q0 -46 33 -78.5t79 -32.5t78.5 32.5
t32.5 78.5v6h223q20 0 35.5 11.5t20.5 30t-1.5 36.5t-23.5 28zM551 54q0 -15 -11 -26t-26.5 -11t-26.5 11t-11 26v6h75v-6zM234 133l7 5q24 15 37.5 39.5t13.5 52.5v223q0 82 50 146t126 81q13 3 21 13t8 23v14q0 7 5 12t12 5t12 -5t5 -12v-14q0 -13 8 -23t21 -13
q76 -16 125.5 -77t49.5 -138v-235q0 -28 14 -52.5t38 -39.5l6 -5h-559z" />
    <glyph glyph-name="uniE618" unicode="&#xe618;" 
d="M191.5 448q26.5 0 45.5 -18.5t19 -45.5t-19 -45.5t-45.5 -18.5t-45 18.5t-18.5 45.5t18.5 45.5t45 18.5zM191.5 704q26.5 0 45.5 -18.5t19 -45.5t-19 -45.5t-45.5 -18.5t-45 18.5t-18.5 45.5t18.5 45.5t45 18.5zM191.5 192q26.5 0 45.5 -19t19 -45.5t-19 -45t-45.5 -18.5
t-45 18.5t-18.5 45.5t18.5 45.5t45 18.5zM896 640q0 26 -18.5 43.5t-45.5 17.5h-448q-27 0 -45.5 -17.5t-18.5 -43.5q0 -27 18.5 -45.5t45.5 -18.5h448q27 0 45.5 18.5t18.5 45.5zM896 387q0 26 -18.5 43.5t-45.5 17.5h-448q-27 0 -45.5 -17.5t-18.5 -43.5t18.5 -45
t45.5 -19h448q27 0 45.5 19t18.5 45zM896 128q0 26 -18.5 43.5t-45.5 17.5h-448q-27 0 -45.5 -17.5t-18.5 -43.5q0 -27 18.5 -45.5t45.5 -18.5h448q27 0 45.5 18.5t18.5 45.5z" />
    <glyph glyph-name="uniE619" unicode="&#xe619;" 
d="M839 128v-17l-202 41q-10 -33 -45 -55t-81 -22q-45 0 -80.5 22t-45.5 56l-200 -39v17q0 74 22 129.5t68 99.5q-8 101 8.5 190.5t51.5 154.5t77.5 111.5t91.5 75.5l7 4l8 -4q49 -29 91 -75.5t76.5 -111.5t51.5 -154.5t9 -190.5q48 -44 70 -99.5t22 -132.5zM575 479
q28 26 30 64.5t-24 67t-65 30.5t-67 -24.5t-30 -65t24 -67t65 -30t67 24.5zM558 -21q0 -12 -4.5 -27t-11.5 -28.5t-13.5 -25.5t-11.5 -19l-5 -7q-46 70 -46 107q0 24 13.5 41t32.5 17t32.5 -17t13.5 -41z" />
    <glyph glyph-name="uniE61A" unicode="&#xe61a;" 
d="M512 690q-13 0 -22.5 9t-9.5 22v67q0 13 9.5 22t22.5 9t22.5 -9t9.5 -22v-67q0 -13 -9.5 -22t-22.5 -9zM558 76h-83q-13 0 -22.5 9.5t-9.5 22.5t9.5 22.5t22.5 9.5h83q13 0 22.5 -9.5t9.5 -22.5t-9.5 -22.5t-22.5 -9.5zM814 571q-14 0 -23 9t-9 22.5t9 22.5l47 47
q9 9 22.5 9t22.5 -9.5t9 -22.5t-9 -22l-47 -47q-9 -9 -22 -9zM210 571q-13 0 -22 9l-47 47q-9 9 -9 22t9 22.5t22.5 9.5t22.5 -9l47 -47q9 -9 9 -22.5t-9 -22.5t-23 -9zM579 -53h-125q-43 0 -73 30.5t-30 72.5q0 61 -43 104q-88 88 -87 212q1 122 87 208q88 88 213 86
q121 -2 206 -88.5t85 -207.5q0 -122 -86 -209q-44 -44 -44 -104v-1q0 -42 -30 -72.5t-73 -30.5zM516 596q-95 0 -163 -67.5t-69 -163.5q0 -97 69 -166q61 -61 61 -149q0 -16 12 -27.5t28 -11.5h125q16 0 28 11.5t12 27.5v1q0 86 62 149q68 68 68 164q0 94 -67 162t-162 70
h-4z" />
    <glyph glyph-name="uniE61B" unicode="&#xe61b;" 
d="M935 444q-8 31 -27 55t-41 37q-33 19 -72 19h-93q15 44 19 96v3q0 57 -17 98q-15 39 -46 61q-28 20 -64 24q-31 2 -61 -8q-43 -13 -62 -57q-9 -21 -16 -65v-1q0 -1 -1 -3v-2q-3 -17 -4 -22q-18 -83 -75 -143q-30 -32 -63 -51q-22 -14 -50 -14h-107q-29 0 -49.5 -20.5
t-20.5 -49.5v-342q0 -29 20.5 -49.5t49.5 -20.5h150q30 0 87 -18l2 -1q37 -12 61.5 -18.5t76 -13.5t110.5 -7h2q118 0 172 60q26 29 34 66q1 8 2 13q36 27 45 67q8 33 -3 66q30 29 36 66q4 33 -11 66q12 24 17 49q6 31 -1 60zM852 313q12 -17 9 -34q-3 -20 -29 -37
q-12 -8 -14.5 -22t4.5 -26q13 -22 8 -42q-5 -19 -30 -34q-19 -12 -16 -33q1 -26 -20 -48q-34 -37 -120 -37h-2q-53 0 -100.5 6.5t-70 12.5t-56.5 17q-59 19 -93 22v356q13 5 25 12q42 25 78 63q70 74 92 175q2 9 6 31q6 36 12 50t19 18q38 12 64 -6q33 -24 34 -102
q-4 -52 -20 -90q-12 -29 5 -54t47 -25h111q20 0 37 -10q28 -16 36 -48q8 -34 -18 -75q-13 -21 2 -40zM154 401q0 1 1 1h98v-344h-98q-1 0 -1 1v342z" />
    <glyph glyph-name="uniE61C" unicode="&#xe61c;" 
d="M876 748h-728q-35 0 -60 -24.5t-25 -59.5v-560q0 -35 25 -59.5t60 -24.5h728q35 0 60 24.5t25 59.5v560q0 35 -25 59.5t-60 24.5zM890 189l-176 235q-10 19 -46 19q-18 0 -31 -4.5t-17 -9.5l-5 -4l-154 -238q-8 -16 -29 -16q-9 0 -17 4t-11 8l-4 4l-81 92q-20 28 -47 28
q-12 0 -24.5 -7.5t-18.5 -15.5l-7 -7l-88 -111v483q0 12 8 20t20 8h700q12 0 20 -8t8 -20v-460zM470 496q0 -41 -29 -70t-70.5 -29t-70.5 29t-29 70t29 70t70.5 29t70.5 -29t29 -70z" />
    <glyph glyph-name="uniE61E" unicode="&#xe61e;" 
d="M645 809h-372q-44 0 -75 -31t-31 -75v-638q0 -44 31 -75t75 -31h478q44 0 75 31t31 75v532zM643 726l127 -127h-104q-9 0 -16 6.5t-7 16.5v104zM751 19h-478q-19 0 -32.5 13.5t-13.5 32.5v638q0 19 13.5 32.5t32.5 13.5h310v-127q0 -34 24.5 -58.5t58.5 -24.5h131v-474
q0 -19 -13.5 -32.5t-32.5 -13.5zM682 388h-340q-12 0 -21 -9t-9 -21.5t9 -21t21 -8.5h340q12 0 21 8.5t9 21t-9 21.5t-21 9zM682 232h-340q-12 0 -21 -9t-9 -21.5t9 -21t21 -8.5h340q12 0 21 8.5t9 21t-9 21.5t-21 9z" />
    <glyph glyph-name="uniE620" unicode="&#xe620;" 
d="M0 896v-1024h1024v1024h-1024zM960 -64h-896v896h896v-896z" />
    <glyph glyph-name="uniE621" unicode="&#xe621;" 
d="M0 896v-1024h1024v1024h-1024zM960 -64h-896v896h896v-896zM160 368l96 96l160 -160l352 352l96 -96l-448 -448z" />
    <glyph glyph-name="uniE622" unicode="&#xe622;" 
d="M0 896v-1024h1024v1024h-1024zM160 368l96 96l160 -160l352 352l96 -96l-448 -448z" />
    <glyph glyph-name="uniE623" unicode="&#xe623;" 
d="M892 648h-377q-2 1 -3 2l-16 56q-5 26 -27 43.5t-48 17.5h-287q-28 0 -48.5 -20.5t-20.5 -50.5v-625q0 -29 20.5 -49.5t48.5 -20.5h758q29 0 49 20q21 21 21 51v506q0 29 -20.5 49.5t-49.5 20.5zM132 696q0 4 2 4h287q3 0 6 -2.5t4 -5.5l15 -52h-314v56zM894 71
q0 -1 -1 -2q0 -1 -1 -1h-758q-2 0 -2 4v497h762v-498z" />
    <glyph glyph-name="uniE624" unicode="&#xe624;" 
d="M431 230l60 -59l213 213l-213 213l-60 -59l111 -111h-414v-86h412zM811 768h-598q-35 0 -60 -25t-25 -60v-171h85v171h598v-598h-598v171h-85v-171q0 -35 25 -60t60 -25h598q35 0 60 25t25 60v598q0 35 -25 60t-60 25z" />
    <glyph glyph-name="uniE625" unicode="&#xe625;" 
d="M782 -36h-540q-38 0 -64 26t-26 64v600q0 38 26 64t64 26h420q12 0 21 -9t9 -21t-9 -21t-21 -9h-420q-12 0 -21 -9t-9 -21v-600q0 -12 9 -21t21 -9h540q12 0 21 9t9 21v480q0 12 9 21t21 9t21 -9t9 -21v-480q0 -38 -26 -64t-64 -26zM606 444q-12 0 -22 8q-5 7 -7 14.5
t0 15t7 14.5l298 298q10 8 22 8t21 -8q16 -17 5 -37q-3 -4 -5 -6l-298 -299q-9 -8 -21 -8zM482 444h-180q-12 0 -21 9t-9 21t9 21t21 9h180q12 0 21 -9t9 -21t-9 -21t-21 -9zM662 264h-360q-12 0 -21 9t-9 21t9 21t21 9h360q12 0 21 -9t9 -21t-9 -21t-21 -9z" />
    <glyph glyph-name="uniE626" unicode="&#xe626;" 
d="M512 853q96 0 182.5 -37t149.5 -100t100 -149.5t37 -182.5t-37 -182.5t-100 -149.5t-149.5 -100t-182.5 -37t-182.5 37t-149.5 100t-100 149.5t-37 182.5t37 182.5t100 149.5t149.5 100t182.5 37zM512 768q-78 0 -149 -30.5t-122.5 -82t-82 -122.5t-30.5 -149t30.5 -149
t82 -122.5t122.5 -82t149 -30.5t149 30.5t122.5 82t82 122.5t30.5 149t-30.5 149t-82 122.5t-122.5 82t-149 30.5zM469 342v295q0 17 12.5 29.5t30.5 13t30.5 -12t12.5 -30.5l-1 -210h170q18 0 30 -12q12 -13 12.5 -30.5t-12 -30t-30.5 -12.5h-255z" />
    <glyph glyph-name="uniE627" unicode="&#xe627;" 
d="M614 562h-155v105l-317 -145l317 -145v105h167q199 0 199 -153q0 -157 -205 -157h-390v-81h394q279 0 279 231q0 240 -289 240z" />
    <glyph glyph-name="uniE628" unicode="&#xe628;" 
d="M895 31q0 -6 -5 -11t-11 -5h-735q-6 0 -11 5t-5 11v383q16 -18 34 -33q135 -103 213 -168q25 -22 41.5 -34t43.5 -24t51 -12h1q24 0 51 12t43 24t42 34q78 65 212 168q19 15 35 33v-383zM895 555q0 -29 -23.5 -65.5t-50.5 -57.5q-95 -75 -200 -158q-3 -2 -17.5 -14.5
t-23 -19t-22 -16t-25 -13.5t-21.5 -4h-1q-10 0 -21.5 4t-25 13.5t-22.5 16t-23.5 19t-16.5 14.5q-105 83 -201 158q-73 58 -73 142q0 6 5 11t11 5h735q4 0 6.5 -1t4.5 -3.5t3 -5t1.5 -6.5t0.5 -6v-6v-7zM959 574q0 33 -23.5 56.5t-56.5 23.5h-735q-33 0 -56.5 -23.5
t-23.5 -56.5v-543q0 -33 23.5 -56.5t56.5 -23.5h735q33 0 56.5 23.5t23.5 56.5v543z" />
    <glyph glyph-name="uniE629" unicode="&#xe629;" 
d="M954 455l-3 19l-72 24q-11 33 -27 64l35 69l-12 15q-43 59 -100 101l-16 11l-69 -34q-30 16 -64 26l-24 73l-19 3q-38 6 -71 6q-32 0 -71 -6l-19 -3l-24 -73q-34 -10 -64 -26l-69 34l-15 -11q-59 -42 -101 -101l-11 -16l34 -68q-16 -30 -26 -64l-73 -24l-3 -19
q-6 -38 -6 -71t6 -71l3 -19l73 -24q10 -33 26 -64l-34 -69l11 -15q23 -31 46 -55q24 -23 55 -46l16 -11l68 34q31 -16 64 -26l24 -73l19 -3q39 -6 71.5 -6t70.5 6l19 3l25 73q32 10 64 26l68 -34l16 11q31 23 54 46t46 55l11 15l-34 69q16 30 27 64l72 24l3 19q6 38 6 71
q1 32 -6 71zM512.5 156q-94.5 0 -161.5 67t-67 161t67 161t161.5 67t161 -67t66.5 -161t-66.5 -161t-161 -67z" />
    <glyph glyph-name="uniE62A" unicode="&#xe62a;" 
d="M512 853q96 0 182.5 -37t149.5 -100t100 -149.5t37 -182.5t-37 -182.5t-100 -149.5t-149.5 -100t-182.5 -37t-182.5 37t-149.5 100t-100 149.5t-37 182.5t37 182.5t100 149.5t149.5 100t182.5 37zM512 768q-78 0 -149 -30.5t-122.5 -82t-82 -122.5t-30.5 -149t30.5 -149
t82 -122.5t122.5 -82t149 -30.5t149 30.5t122.5 82t82 122.5t30.5 149t-30.5 149t-82 122.5t-122.5 82t-149 30.5zM788 454q-9 38 -43 58q-21 12 -46 12h-60q10 29 12 62v2q0 36 -10 63q-11 25 -30 39q-18 13 -42 15q-19 2 -38 -4q-28 -9 -40 -37q-6 -14 -11 -42v-1v-1v-2
q-2 -11 -3 -14q-12 -53 -48 -91q-19 -21 -40 -34q-15 -8 -32 -8h-69q-18 0 -31.5 -13.5t-13.5 -31.5v-220q0 -18 13 -31.5t32 -13.5h96q20 0 56 -12h1q78 -25 160 -25h1q75 0 110 39q17 18 22 42q1 5 1 8q23 18 30 43q4 21 -3 43q19 18 23 42q3 21 -7 42q8 16 11 31
q4 21 -1 40zM735 369q8 -11 6 -22q-2 -12 -19 -24q-7 -5 -9 -13.5t3 -16.5q8 -14 5 -27t-19 -22q-12 -7 -11 -21q2 -17 -12 -31q-22 -23 -77 -24h-1q-75 0 -146 24q-38 12 -60 13v229q9 3 16 8q27 15 50 40q45 47 60 113q1 5 3 19q4 23 8 32t12 12q25 8 41 -4q22 -16 22 -65
q-3 -34 -13 -58q-8 -19 3 -35t31 -16h71q13 0 23 -6q19 -11 23 -31q6 -22 -11 -48q-9 -13 1 -26zM287 426q0 1 1 1h63v-221h-63h-1v220z" />
    <glyph glyph-name="uniE62B" unicode="&#xe62b;" 
d="M512 768q19 0 42 -3l12 -35l10 -31l31 -10q27 -8 54 -22l29 -15l29 15l33 16q33 -26 59 -59l-31 -62l15 -29q14 -26 22 -54l10 -31l31 -10l36 -12q2 -22 2 -41v-1q0 -19 -3 -42l-35 -12l-31 -10l-10 -31q-8 -28 -22 -53l-15 -29l31 -63q-14 -18 -28 -32t-31 -27l-33 16
l-30 15l-29 -15q-24 -13 -53 -22l-31 -10l-10 -31l-12 -35q-22 -3 -41.5 -3t-42.5 3l-22 66l-32 10q-27 8 -52 22l-30 15l-62 -31q-17 13 -32 27q-14 15 -27 32l31 63l-15 29q-14 25 -22 53l-10 31l-66 22q-3 23 -3 42t3 42l66 22l10 31q8 27 22 53l15 29l-15 30l-16 33
q26 33 59 59l63 -31l29 15q24 13 53 22l31 10l10 31l12 36q22 2 42 2zM512 832q-32 0 -71 -6l-19 -3l-24 -73q-34 -10 -64 -26l-69 34l-15 -11q-59 -42 -101 -101l-11 -16l34 -68q-16 -31 -26 -64l-73 -24l-3 -19q-6 -38 -6 -71t6 -71l3 -19l73 -25q10 -32 26 -63l-34 -69
l11 -15q23 -31 46 -55q24 -23 55 -46l15 -11l69 34q30 -16 64 -26l24 -73l19 -3q39 -6 71.5 -6t70.5 6l19 3l25 73q32 10 63 26l69 -34l16 11q31 23 54 46t46 55l11 15l-34 69q16 30 27 64l72 24l3 19q6 38 6 71q1 32 -6 71l-3 19l-72 24q-11 33 -27 64l35 69l-12 15
q-43 59 -100 101l-16 11l-69 -34q-30 16 -64 26l-24 73l-19 3q-38 6 -71 6zM512.5 448q26.5 0 45 -19t18.5 -45t-18.5 -45t-45 -19t-45.5 19t-19 45t19 45t45.5 19zM512 512q-53 0 -90.5 -37.5t-37.5 -90.5t37.5 -90.5t90.5 -37.5t90.5 37.5t37.5 90.5t-37.5 90.5
t-90.5 37.5z" />
    <glyph glyph-name="uniE62C" unicode="&#xe62c;" 
d="M438 193h148q9 0 15 -5.5t6 -14.5v-40h319q14 0 24 -10t10 -24t-10 -24.5t-24 -10.5h-319v-39q0 -9 -6 -15t-15 -6h-148q-9 0 -15 6t-6 15v39h-319q-14 0 -24 10.5t-10 24.5t10 24t24 10h319v40q0 9 6 14.5t15 5.5zM926 704q14 0 24 -10.5t10 -24.5t-10 -24t-24 -10h-130
v-40q0 -9 -6 -15t-14 -6h-148q-9 0 -15 6t-6 15v40h-509q-14 0 -24 10t-10 24t10 24.5t24 10.5h509v39q0 9 6 15t15 6h148q8 0 14 -6t6 -15v-39h130zM98 350q-14 0 -24 10t-10 24t10 24.5t24 10.5h130v39q0 9 6 15t14 6h148q9 0 15.5 -6t6.5 -15v-39h508q14 0 24 -10.5
t10 -24.5t-10 -24t-24 -10h-508v-40q0 -9 -6.5 -15t-15.5 -6h-148q-8 0 -14 6t-6 15v40h-130zM755 722h-107v-107h107v107zM376 437h-107v-106h107v106zM565 152h-106v-107h106v107z" />
    <glyph glyph-name="uniE62D" unicode="&#xe62d;" 
d="M939 599q0 -68 -48.5 -116t-116.5 -48h-524q-68 0 -116.5 48t-48.5 116t48.5 116.5t116.5 48.5h524q68 0 116.5 -48.5t48.5 -116.5zM773.5 717q-48.5 0 -83 -34.5t-34.5 -83t34.5 -83t83 -34.5t83 34.5t34.5 83t-34.5 83t-83 34.5zM85 169q0 68 48.5 116t116.5 48h524
q68 0 116.5 -48t48.5 -116t-48.5 -116.5t-116.5 -48.5h-524q-68 0 -116.5 48.5t-48.5 116.5zM250.5 51q48.5 0 83 34.5t34.5 83t-34.5 83t-83 34.5t-83 -34.5t-34.5 -83t34.5 -83t83 -34.5z" />
    <glyph glyph-name="uniE62E" unicode="&#xe62e;" 
d="M512 -6q-6 0 -13 4q-8 3 -29.5 14.5t-64 38t-85.5 59t-90 79t-83 96t-59.5 112.5t-23.5 126q0 104 75.5 177.5t182.5 73.5q54 0 103.5 -21.5t86.5 -60.5q36 39 86 60.5t104 21.5q107 0 182.5 -73.5t75.5 -177.5q0 -63 -23.5 -126t-59.5 -112.5t-83 -96t-90 -79t-85.5 -59
t-64 -38t-29.5 -14.5q-7 -4 -13 -4zM322 717q-83 0 -141.5 -57t-58.5 -137q0 -51 18 -102t46.5 -92.5t67.5 -82.5t75 -70t76 -56t63.5 -41t43.5 -25q20 11 43.5 25t63.5 41t76 56t75 70t67.5 82.5t46.5 92.5t18 102q0 80 -58.5 137t-141.5 57q-50 0 -94 -23t-72 -64
q-8 -12 -24 -12t-24 12q-28 41 -72 64t-94 23zM322 717z" />
    <glyph glyph-name="uniE62F" unicode="&#xe62f;" 
d="M512 -6q-6 0 -13 4q-8 3 -29.5 14.5t-64 38t-85.5 59t-90 79t-83 96t-59.5 112.5t-23.5 126q0 104 75.5 177.5t182.5 73.5q54 0 103.5 -21.5t86.5 -60.5q36 39 86 60.5t104 21.5q107 0 182.5 -73.5t75.5 -177.5q0 -63 -23.5 -126t-59.5 -112.5t-83 -96t-90 -79t-85.5 -59
t-64 -38t-29.5 -14.5q-7 -4 -13 -4z" />
    <glyph glyph-name="uniE630" unicode="&#xe630;" 
d="M512 853q96 0 182.5 -37t149.5 -100t100 -149.5t37 -182.5t-37 -182.5t-100 -149.5t-149.5 -100t-182.5 -37t-182.5 37t-149.5 100t-100 149.5t-37 182.5t37 182.5t100 149.5t149.5 100t182.5 37zM512 768q-78 0 -149 -30.5t-122.5 -82t-82 -122.5t-30.5 -149t30.5 -149
t82 -122.5t122.5 -82t149 -30.5t149 30.5t122.5 82t82 122.5t30.5 149t-30.5 149t-82 122.5t-122.5 82t-149 30.5zM571 251q-4 0 -12 2.5t-35.5 23.5t-59.5 57t-49 65.5t-18 40.5l-1 11l59 52q-2 24 -8.5 47.5t-17.5 46.5t-30 34t-42 5q-46 -11 -68.5 -63t-10.5 -97
q22 -77 61 -139.5t78.5 -98t82 -61t68 -34.5t40.5 -11q59 -10 99.5 21t52.5 90q-79 58 -120 69z" />
    <glyph glyph-name="uniE631" unicode="&#xe631;" 
d="M512 -85q-95 0 -182 37.5t-149.5 100t-100 149.5t-37.5 182t37.5 182t100 149.5t149.5 100t182 37.5t182 -37.5t149.5 -100t100 -149.5t37.5 -182t-37.5 -182t-100 -149.5t-149.5 -100t-182 -37.5zM512 809q-115 0 -213 -57t-155 -155t-57 -213q0 -81 29.5 -155
t82.5 -132q13 12 26 18q22 12 77 23t83 25v49q-13 12 -25.5 43t-15.5 38q-4 7 -15.5 20.5t-15.5 22.5q-18 40 -14 73q1 7 6 18.5t6 17.5q1 8 0 26.5t0 26.5q7 74 56 125.5t120 61.5h59q76 -13 123.5 -66t52.5 -134q0 -6 -1.5 -20t-0.5 -22q1 -6 7.5 -19t6.5 -21
q3 -61 -47 -110q-2 -10 -4.5 -18.5t-8 -18.5t-7.5 -14t-10 -16.5t-9 -13.5v-47q25 -15 79.5 -26.5t75.5 -21.5q12 -6 25 -16q109 121 109 283q0 115 -57 213t-155 155t-213 57z" />
    <glyph glyph-name="uniE632" unicode="&#xe632;" 
d="M959 386q-54 141 -175.5 228t-271.5 87t-271.5 -87t-176.5 -228v-1v0q55 -142 176.5 -230t271.5 -88t271.5 88t175.5 230v0v1zM512 131q-125 0 -227.5 70t-154.5 184q52 114 154.5 183.5t227 69.5t227 -69.5t154.5 -183.5q-52 -114 -154.5 -184t-226.5 -70zM642 459
q0 -31 -22 -53t-52.5 -22t-52.5 22t-22 53t22 53t52 22h1q-27 10 -56 10q-67 0 -114 -47t-47 -113.5t47 -113.5t113.5 -47t114 47t47.5 113q0 56 -35 99q4 -11 4 -23zM512 552q-69 0 -118 -49t-49 -118.5t49 -118.5t118 -49t118 49t49 118.5t-49 118.5t-118 49zM512 273
q-46 0 -79.5 33t-33.5 79.5t33 79t79 32.5t78.5 -32.5t32.5 -79.5q0 -46 -32 -79t-78 -33z" />
    <glyph glyph-name="uniE633" unicode="&#xe633;" 
d="M809 502q-11 110 -97 186t-203 76q-119 0 -206 -78t-94 -190q-55 -23 -89.5 -73t-34.5 -111v-24q0 -83 58.5 -141.5t140.5 -58.5h466q82 0 140.5 58.5t58.5 141.5v24q0 66 -39.5 118.5t-100.5 71.5zM650 308l-111 -111q-8 -9 -21.5 -9t-22.5 9l-111 111q-9 9 -9 22
t9 22.5t22 9.5t22 -9l56 -56v190q0 13 9.5 22t22.5 9t22 -9t9 -22v-193l59 59q9 9 22 9t22.5 -9.5t9.5 -22.5t-10 -22z" />
    <glyph glyph-name="uniE634" unicode="&#xe634;" 
d="M665 159q-70 -51 -156 -50q-8 0 -22 1q-2 1 -9 2q-11 1 -17 2q-2 1 -10 3q-10 2 -16 4q-1 0 -3.5 1t-4.5 2l-18 6l-4 2l-20 10h-1v1q-34 19 -61 47l-1 1q-9 9 -16 18q-1 2 -3 4q-58 75 -58 171h70l-112 174l-113 -174h70q0 -112 63 -205l1 -1v-2q2 -3 13 -17l5 -6
q8 -10 20 -23l2 -2q35 -36 79 -61q1 -1 2 -1q12 -7 26 -13q1 -1 3 -1.5t3 -1.5q8 -3 23 -9q7 -2 11 -3l20 -6q12 -3 14 -3q5 -1 6 -1q4 -1 19 -3q5 -1 7 -1q20 -2 36 -2q110 0 201 66q14 10 17 28t-7 32q-10 15 -27 18t-32 -7zM863 384q0 112 -61 205q-1 0 -1.5 1t-0.5 2
l-15 20q-1 1 -2 3q-54 67 -131 101q-1 0 -2.5 1t-2.5 1q-9 4 -24 9q-8 3 -9 3q-8 3 -22 6q-2 1 -6.5 2t-6.5 1q-1 0 -3 0.5t-3 1.5q-3 0 -17 2q-1 0 -5 0.5t-6 0.5q-11 1 -28 2h-3h-2h-1q-110 0 -201 -66q-14 -10 -17 -27.5t7 -32.5t27 -18t32 7q70 51 155 50q13 0 23 -1
q2 0 8 -1q11 -2 18 -3q2 0 8 -2q11 -3 19 -5q2 -1 5 -2q12 -4 20 -7h1l1 -1q60 -27 101 -78l1 -1q60 -76 60 -174h-70l113 -174l112 174h-71z" />
    <glyph glyph-name="uniE635" unicode="&#xe635;" 
d="M498 226l-129 -128q-29 -29 -72 -29t-72 29t-29 71t29 72l161 161q30 30 72 30t72 -30q10 -10 24.5 -10t25 10t10.5 24.5t-11 25.5q-50 50 -121 50t-121 -50l-161 -161q-51 -51 -51 -122t50.5 -121t121.5 -50t122 50l128 129q11 10 11 24.5t-10.5 25t-25 10.5t-24.5 -11z
M848 720q-51 50 -122 50t-121 -50l-129 -129q-10 -10 -10 -24.5t10 -25t24.5 -10.5t25.5 10l129 129q28 29 71 29t72 -29q30 -30 30 -72t-30 -71l-161 -161q-29 -29 -72 -29t-71 29q-11 10 -25.5 10t-24.5 -10.5t-10 -25t10 -24.5q50 -50 121 -50t122 50l161 161
q50 50 50 121.5t-50 121.5z" />
    <glyph glyph-name="uniE636" unicode="&#xe636;" 
d="M809 502q-11 110 -97 186t-203 76q-119 0 -206 -78t-94 -190q-55 -23 -89.5 -73t-34.5 -111v-24q0 -83 58.5 -141.5t140.5 -58.5h466q82 0 140.5 58.5t58.5 141.5v24q0 66 -39.5 118.5t-100.5 71.5zM650.5 354q-9.5 -9 -22.5 -9t-22 9l-59 58v-192q0 -13 -9 -22.5
t-22 -9.5t-22.5 9.5t-9.5 22.5v190l-56 -56q-9 -9 -22 -9t-22 9t-9 22t9 22l111 112q9 8 22.5 8t21.5 -8l111 -112q10 -9 10 -22t-9.5 -22z" />
    <glyph glyph-name="uniE637" unicode="&#xe637;" 
d="M192 544h160v160h-160v-160zM432 64h160v160h-160v-160zM192 64h160v160h-160v-160zM192 304h160v160h-160v-160zM432 304h160v160h-160v-160zM672 704v-160h160v160h-160zM432 544h160v160h-160v-160zM672 304h160v160h-160v-160zM672 64h160v160h-160v-160z" />
    <glyph glyph-name="uniE638" unicode="&#xe638;" 
d="M502 648v-177q0 -28 -20 -47.5t-48 -19.5h-176q-28 0 -48 19.5t-20 47.5v177q0 28 20 47.5t48 19.5h176q28 0 48 -19.5t20 -47.5zM799 715h-177q-28 0 -47.5 -19.5t-19.5 -47.5v-177q0 -28 19.5 -47.5t47.5 -19.5h177q28 0 47.5 19.5t19.5 47.5v177q0 28 -19.5 47.5
t-47.5 19.5zM434 351h-176q-28 0 -48 -20t-20 -48v-176q0 -28 20 -48t48 -20h176q28 0 48 20t20 48v176q0 28 -20 48t-48 20zM799 351h-177q-28 0 -47.5 -20t-19.5 -48v-176q0 -28 19.5 -48t47.5 -20h177q28 0 47.5 20t19.5 48v176q0 28 -19.5 48t-47.5 20z" />
    <glyph glyph-name="uniE639" unicode="&#xe639;" 
d="M872 -66h-450q-37 0 -63.5 26.5t-26.5 63.5v135h45v-135q0 -19 13 -32t32 -13h450q19 0 32 13t13 32v450q0 19 -13 32t-32 13h-135v45h135q37 0 63.5 -26.5t26.5 -63.5v-450q0 -37 -26.5 -63.5t-63.5 -26.5zM602 204h-450q-37 0 -63.5 26.5t-26.5 63.5v450
q0 37 26.5 63.5t63.5 26.5h450q37 0 63.5 -26.5t26.5 -63.5v-450q0 -37 -26.5 -63.5t-63.5 -26.5zM647 744q0 19 -13 32t-32 13h-450q-19 0 -32 -13t-13 -32v-450q0 -19 13 -32t32 -13h450q19 0 32 13t13 32v450z" />
    <glyph glyph-name="uniE63A" unicode="&#xe63a;" 
d="M128 427h341v341h-341v-341zM213 683h171v-171h-171v171zM128 0h341v341h-341v-341zM213 256h171v-171h-171v171zM555 768v-341h341v341h-341zM811 512h-171v171h171v-171zM555 0h341v341h-341v-341zM640 256h171v-171h-171v171z" />
    <glyph glyph-name="uniE63B" unicode="&#xe63b;" 
d="M194 606q-7 -13 -11 -34t1.5 -59.5t24 -81t64.5 -100.5t115 -115q72 -61 138.5 -96.5t111.5 -44t82 -4t55.5 15t25.5 22.5l-170 139q-9 -12 -23.5 -11.5t-31.5 9.5t-50 30q-1 0 -61.5 49.5t-61.5 50.5q-9 10 -16 17.5t-13.5 17.5t-9 18t-2 17t6.5 17zM848 175
q6 9 4.5 19.5t-9.5 17.5l-133 108q-8 7 -17.5 5.5t-15.5 -10.5l-36 -52l170 -140zM415 530q6 9 4.5 19.5t-9.5 16.5l-137 112q-8 7 -17.5 5t-15.5 -10l-36 -53l174 -143z" />
    <glyph glyph-name="uniE63C" unicode="&#xe63c;" 
d="M959 386q-54 141 -175.5 228t-271.5 87q-128 0 -238 -65l-103 91l-40 -46l91 -81q-108 -85 -158 -214v-1v0q55 -142 176.5 -230t271.5 -88q127 0 237 66l112 -99l41 46l-101 89q108 85 158 216v0v1zM512 131q-125 0 -227.5 70t-154.5 184q48 106 139 173l99 -88
q-23 -39 -23 -86q0 -69 49 -118t118 -49q57 0 103 35l84 -75q-88 -46 -187 -46zM612 337l-161 142q27 18 60 18q46 0 78.5 -32.5t32.5 -79.5q0 -25 -10 -48zM571 290q-27 -17 -59 -17q-46 0 -79.5 33t-33.5 79q0 26 11 48zM754 211l-98 87q23 40 23 86q0 70 -49 119t-118 49
q-58 0 -103 -36l-85 76q88 46 188 46q124 0 226.5 -69.5t154.5 -183.5q-48 -106 -139 -174z" />
    <glyph glyph-name="uniE63D" unicode="&#xe63d;" 
d="M895 757h-766q-10 0 -17.5 -7.5t-7.5 -17.5v-511q0 -10 7.5 -17.5t17.5 -7.5h357v-102h-102q-10 0 -17.5 -7.5t-7.5 -18t7.5 -18t17.5 -7.5h256q10 0 17.5 7.5t7.5 18t-7.5 18t-17.5 7.5h-103v102h358q10 0 17.5 7.5t7.5 17.5v511q0 10 -7.5 17.5t-17.5 7.5z" />
    <glyph glyph-name="uniE63E" unicode="&#xe63e;" 
d="M895 757h-766q-10 0 -17.5 -7.5t-7.5 -17.5v-511q0 -10 7.5 -17.5t17.5 -7.5h357v-102h-102q-10 0 -17.5 -7.5t-7.5 -18t7.5 -18t17.5 -7.5h256q10 0 17.5 7.5t7.5 18t-7.5 18t-17.5 7.5h-103v102h358q10 0 17.5 7.5t7.5 17.5v511q0 10 -7.5 17.5t-17.5 7.5zM869 247
h-714v459h714v-459z" />
    <glyph glyph-name="uniE63F" unicode="&#xe63f;" 
d="M921 633q-9 12 -25 12h-651l-28 131q-2 11 -10.5 18t-19.5 7h-81q-12 0 -21.5 -9.5t-9.5 -22t9.5 -22t21.5 -9.5h56l118 -565q2 -11 10.5 -18t19.5 -7h468q13 0 22 9t9 22t-9 22t-22 9h-442l-20 93h505q11 0 19 6.5t11 16.5l75 280q4 15 -5 27zM797 366h-494l-45 217h598
zM370.5 117q-32.5 0 -55 -23t-22.5 -55t22.5 -54.5t55 -22.5t55 22.5t22.5 54.5t-22.5 55t-55 23zM370.5 8q-12.5 0 -22 9t-9.5 22t9.5 22t22 9t22 -9t9.5 -22t-9.5 -22t-22 -9zM712 117q-32 0 -54.5 -23t-22.5 -55t22.5 -54.5t54.5 -22.5t55 22.5t23 54.5t-23 55t-55 23z
M712.5 8q-12.5 0 -22 9t-9.5 22t9.5 22t22 9t21.5 -9t9 -22t-9 -22t-21.5 -9z" />
    <glyph glyph-name="uniE640" unicode="&#xe640;" 
d="M184 468q30 0 51 21t21 50q0 10 -2 16l96 56q22 -22 52 -22q19 0 36 10t26 26l81 -16q2 -28 23 -48t49 -20q30 0 51 21t21 51v6l94 38q22 -22 52 -22t51 21t21 51t-21 51t-51 21t-51 -21t-21 -51v-8l-94 -38q-22 22 -52 22q-38 0 -60 -32l-85 16q-3 27 -23.5 45.5
t-48.5 18.5q-30 0 -51 -21t-21 -51v-8l-100 -58q-19 16 -46 16q-30 0 -51 -21t-21 -51q0 -29 22 -49t52 -20zM838.5 735q10.5 0 17.5 -6.5t7 -17t-7 -17.5t-17.5 -7t-17 7t-6.5 17.5t6.5 17t17 6.5zM621.5 637q10.5 0 17 -6.5t6.5 -17t-6.5 -17.5t-17 -7t-17.5 7t-7 17.5
t7 17t17.5 6.5zM402 687q10 0 17 -6.5t7 -17t-7 -17.5t-17.5 -7t-17 7t-6.5 17t7 17t17 7zM184 565q11 0 17.5 -6.5t6.5 -17t-6.5 -17t-17 -6.5t-17.5 6.5t-7 16.5q0 11 7.5 17.5t16.5 6.5zM835 484q-32 0 -54 -22t-22 -52v-375h-62v249q0 31 -22 52.5t-54 21.5
q-31 0 -53.5 -22t-22.5 -52v-251h-75v327q0 31 -22.5 52.5t-53.5 21.5q-32 0 -54 -22t-22 -52v-325h-62v199q0 31 -22 52.5t-54 21.5q-31 0 -53.5 -22t-22.5 -52v-249h799v425q6 29 -15 51.5t-53 22.5zM212 35h-50v199q0 10 7.5 17t16.5 7q10 0 17 -7.5t7 -16.5v-199h2z
M424 35h-50v323q0 10 7.5 18t16.5 8q10 0 17 -7.5t7 -18.5v-323h2zM649 35h-50v249q0 10 7.5 17t16.5 7q10 0 17 -7.5t7 -16.5v-249h2zM861 35h-50v373q0 10 7.5 18t16.5 8q10 0 17 -8t7 -18v-373h2z" />
    <glyph glyph-name="uniE641" unicode="&#xe641;" 
d="M184 468q30 0 51 21t21 50q0 10 -2 16l96 56q22 -22 52 -22q19 0 36 10t26 26l81 -16q2 -28 23 -48t49 -20q30 0 51 21t21 51v6l94 38q22 -22 52 -22t51 21t21 51t-21 51t-51 21t-51 -21t-21 -51v-8l-94 -38q-22 22 -52 22q-38 0 -60 -32l-85 16q-3 27 -23.5 45.5
t-48.5 18.5q-30 0 -51 -21t-21 -51v-8l-100 -58q-19 16 -46 16q-30 0 -51 -21t-21 -51q0 -29 22 -49t52 -20zM835 484q-32 0 -54 -22t-22 -52v-375h-62v249q0 31 -22 52.5t-54 21.5q-31 0 -53.5 -22t-22.5 -52v-251h-75v327q0 31 -22.5 52.5t-53.5 21.5q-32 0 -54 -22
t-22 -52v-325h-62v199q0 31 -22 52.5t-54 21.5q-31 0 -53.5 -22t-22.5 -52v-249h799v425q6 29 -15 51.5t-53 22.5z" />
    <glyph glyph-name="uniE642" unicode="&#xe642;" 
d="M921 633q-9 12 -25 12h-651l-28 131q-2 11 -10.5 18t-19.5 7h-81q-12 0 -21.5 -9.5t-9.5 -22t9.5 -22t21.5 -9.5h55l119 -565q2 -11 10.5 -18t19.5 -7h468q13 0 22 9t9 22t-9 22t-22 9h-442l-20 93h505q11 0 19 6.5t11 16.5l75 280q4 15 -5 27zM370.5 117
q-32.5 0 -55 -23t-22.5 -55t22.5 -54.5t55 -22.5t55 22.5t22.5 54.5t-22.5 55t-55 23zM712 117q-32 0 -54.5 -23t-22.5 -55t22.5 -54.5t54.5 -22.5t55 22.5t23 54.5t-23 55t-55 23z" />
    <glyph glyph-name="uniE643" unicode="&#xe643;" 
d="M866 825h-712q-34 0 -58 -24t-24 -58v-712q0 -34 24 -58.5t58 -24.5h712q34 0 58 24.5t24 58.5v712q0 34 -24 58t-58 24zM894 58q0 -23 -16 -39t-39 -16h-658q-22 0 -38 16t-16 39v658q0 22 16 38t38 16h658q23 0 39 -16t16 -38v-658zM127 688h767v-55h-767v55zM365 223
q7 9 31.5 34.5t38 41t26 39.5t12.5 45q0 38 -28.5 62t-71.5 24t-75 -27.5t-32 -66.5q0 -13 9 -22t24 -9t22.5 10.5t10 23.5t12 23.5t26.5 10.5q14 0 23.5 -9.5t9.5 -22.5q0 -18 -16 -39q-16 -20 -34.5 -41t-42.5 -45.5t-36 -38.5q-10 -11 -10 -21q0 -27 35 -27h151
q14 0 23.5 7t9.5 20q0 28 -36 28h-82zM644 469q-37 0 -67.5 -21t-30.5 -45q0 -12 8 -21t21 -9q10 0 17.5 6t11.5 13.5t14 14t24 6.5q15 0 23.5 -8t8.5 -20q0 -15 -9.5 -22t-21.5 -8t-22 -8t-10 -21q0 -16 12 -22.5t26 -6t26 -7.5t12 -28q0 -16 -12.5 -27t-29.5 -11
t-28.5 7.5t-16 16.5t-12 16.5t-17.5 7.5q-12 0 -23 -8t-11 -19q0 -27 30.5 -52t76.5 -25q47 0 79.5 26.5t32.5 63.5q0 24 -14.5 43.5t-39.5 30.5q37 21 37 62q0 28 -25.5 51.5t-69.5 23.5z" />
    <glyph glyph-name="uniE644" unicode="&#xe644;" 
d="M849 -33h-674q-71 0 -99.5 49t5.5 111l340 609q35 63 91 63q13 0 25.5 -4t24 -12t22 -20t18.5 -27l341 -609q34 -63 5.5 -111.5t-99.5 -48.5zM512 735q-9 0 -18 -8t-17 -22l-340 -610q-17 -30 -7 -47t45 -17h674q35 0 45 17t-7 47l-341 610q-16 30 -34 30zM512 256
q-13 0 -22.5 9.5t-9.5 22.5v288q0 13 9.5 22.5t22.5 9.5t22.5 -9.5t9.5 -22.5v-288q0 -13 -9.5 -22.5t-22.5 -9.5zM464 144q0 13 6.5 24t17.5 17.5t24 6.5t24 -6.5t17.5 -17.5t6.5 -24q0 -20 -14 -34t-34 -14t-34 14t-14 34z" />
    <glyph glyph-name="uniE645" unicode="&#xe645;" 
d="M514 505q65 0 111.5 43.5t46.5 104.5t-46.5 104.5t-111.5 43.5t-111 -43.5t-46 -104.5t46 -104.5t111 -43.5zM638 494q-56 -38 -124 -38q-67 0 -124 39q-107 -24 -174.5 -80.5t-67.5 -127.5v-211q0 -10 7.5 -17.5t18.5 -7.5h52q11 0 18.5 6.5t7.5 16.5l1 156q0 17 17 17
q7 0 12 -5t5 -12v-146q0 -1 0.5 -8.5t1.5 -13.5t2.5 -15.5t5 -18t7.5 -15.5q2 -2 7 -5t22.5 -11t39 -14.5t59.5 -11.5t81 -5q44 0 81.5 5t60 11.5t39 13.5t22.5 12l7 5q4 5 10 33t6 38l1 146q0 7 5 12t12 5t12 -5t5 -12v-156q0 -10 8 -16.5t19 -6.5h52q11 0 18.5 7.5
t7.5 17.5v211q0 71 -67 127.5t-174 79.5z" />
    <glyph glyph-name="uniE646" unicode="&#xe646;" 
d="M944 566.5q-37 86.5 -100 149.5t-149.5 100t-182.5 37t-182.5 -37t-149.5 -100t-100 -149.5t-37 -182.5t37 -182.5t100 -149.5t149.5 -100t182.5 -37t182.5 37t149.5 100t100 149.5t37 182.5t-37 182.5zM865.5 235q-30.5 -71 -82 -122.5t-122.5 -82t-149 -30.5t-149 30.5
t-122.5 82t-82 122.5t-30.5 149t30.5 149t82 122.5t122.5 82t149 30.5t149 -30.5t122.5 -82t82 -122.5t30.5 -149t-30.5 -149zM745 256l-34 21q-11 7 -11 19v148q0 61 -36 110t-94 67q-3 20 -19 34t-37 14t-37 -14t-20 -34q-57 -19 -93.5 -70t-36.5 -114v-141q0 -12 -10 -19
l-34 -21q-23 -15 -15 -41q3 -12 13 -19t22 -7h140v-4q0 -29 21 -49.5t50 -20.5t49.5 20.5t20.5 49.5v4h141q12 0 22 7t13 19q8 26 -15 41zM538 185q0 -9 -7 -16t-17 -7t-17 7t-7 16v4h48v-4zM338 235l4 3q32 20 32 58v141q0 51 31.5 92t79.5 51q18 4 18 23v9q0 4 3.5 7
t7.5 3t7 -3t3 -7v-9q0 -19 19 -23q48 -10 79.5 -48.5t31.5 -87.5v-148q0 -38 32 -58l4 -3h-352z" />
    <glyph glyph-name="uniE647" unicode="&#xe647;" 
d="M512 -85q-95 0 -182 37.5t-149.5 100t-100 149.5t-37.5 182t37.5 182t100 149.5t149.5 100t182 37.5t182 -37.5t149.5 -100t100 -149.5t37.5 -182t-37.5 -182t-100 -149.5t-149.5 -100t-182 -37.5zM801 73q-22 14 -91 32q-4 1 -17.5 4t-19 4.5t-17 5t-17 6.5t-13.5 8.5
t-11 11.5t-5.5 14t-1.5 18q-27 -25 -68 -32t-79 8q-5 2 -18 10.5t-20 8.5q1 -12 -4 -22t-11 -16t-19.5 -11.5t-20.5 -7.5t-24 -5l-23 -5q-69 -17 -94 -35q122 -111 285 -111q82 0 156.5 30t132.5 84zM544 647q-105 9 -156 -55t-36 -173q-1 -1 -5.5 -2t-6.5 -2.5t-3 -4.5
q0 -75 40 -90q6 -28 18 -53.5t30.5 -47.5t46 -33t58.5 -7q50 6 81.5 46.5t44.5 94.5q22 9 31.5 34.5t6.5 57.5q0 4 -7 5t-8 2q19 84 -22 153t-113 75zM512 809q-115 0 -213 -57t-155 -155t-57 -213q0 -81 29.5 -155t82.5 -132q13 12 26 18q22 12 77 23t83 25v49
q-13 12 -25.5 43t-15.5 38q-4 7 -15.5 20.5t-15.5 22.5q-18 40 -14 73q1 7 6 18.5t6 17.5q1 8 0 26.5t0 26.5q7 74 56 125.5t120 61.5h59q76 -13 123.5 -66t52.5 -134q0 -6 -1.5 -20t-0.5 -22q1 -6 7.5 -19t6.5 -21q3 -61 -47 -110q-2 -10 -4.5 -18.5t-8 -18.5t-7.5 -14
t-10 -16.5t-9 -13.5v-47q25 -15 79.5 -26.5t75.5 -21.5q12 -6 25 -16q109 121 109 283q0 115 -57 213t-155 155t-213 57z" />
    <glyph glyph-name="uniE648" unicode="&#xe648;" 
d="M480 832q-98 0 -186.5 -38t-153 -102.5t-102.5 -153t-38 -186.5t38 -186.5t102.5 -153t153 -102.5t186.5 -38t186.5 38t153 102.5t102.5 153t38 186.5t-38 186.5t-102.5 153t-153 102.5t-186.5 38zM480 -32q-104 0 -192.5 51.5t-140 140t-51.5 192.5t51.5 192.5t140 140
t192.5 51.5t192.5 -51.5t140 -140t51.5 -192.5t-51.5 -192.5t-140 -140t-192.5 -51.5zM608 320q13 0 22.5 9.5t9.5 22.5t-9.5 22.5t-22.5 9.5h-68l95 142q7 11 4.5 24t-13.5 20.5t-24 5t-21 -13.5l-101 -152l-101 152q-8 11 -21 13.5t-24 -5t-13.5 -20.5t4.5 -24l95 -142
h-68q-13 0 -22.5 -9.5t-9.5 -22.5t9.5 -22.5t22.5 -9.5h96v-64h-96q-13 0 -22.5 -9.5t-9.5 -22.5t9.5 -22.5t22.5 -9.5h96v-96q0 -13 9.5 -22.5t22.5 -9.5t22.5 9.5t9.5 22.5v96h96q13 0 22.5 9.5t9.5 22.5t-9.5 22.5t-22.5 9.5h-96v64h96z" />
    <glyph glyph-name="uniE649" unicode="&#xe649;" 
d="M512 896q-133 0 -226.5 -93.5t-93.5 -226.5q0 -90 33 -195.5t80 -192t94 -160t80 -114.5l33 -42q13 16 34.5 43.5t77 111t97.5 164.5t76.5 188t34.5 197q0 133 -93.5 226.5t-226.5 93.5zM512 380q-81 0 -138.5 57.5t-57.5 138.5t57.5 138.5t138.5 57.5t138.5 -57.5
t57.5 -138.5t-57.5 -138.5t-138.5 -57.5zM388 576q0 51 36.5 87.5t87.5 36.5t87.5 -36.5t36.5 -87.5t-36.5 -87.5t-87.5 -36.5t-87.5 36.5t-36.5 87.5z" />
    <glyph glyph-name="uniE64A" unicode="&#xe64a;" 
d="M197 382q0 -130 92 -222.5t222.5 -92.5t223 92.5t92.5 223t-92.5 222.5t-223 92t-222.5 -92t-92 -223zM512 851q-96 0 -182.5 -37t-149.5 -100t-100 -149.5t-37 -182t37 -182.5t100 -149.5t149.5 -100t182 -37.5t182.5 37.5t149.5 100t100 149.5t37.5 182.5t-37.5 182
t-100 149.5t-149.5 100t-182 37zM512 -34q-113 0 -209 56t-151.5 151.5t-55.5 208.5t55.5 209t151.5 151.5t209 55.5t208.5 -55.5t151.5 -151.5t56 -209t-56 -208.5t-151.5 -151.5t-208.5 -56z" />
    <glyph glyph-name="uniE64B" unicode="&#xe64b;" 
d="M512 851q-96 0 -182.5 -37t-149.5 -100t-100 -149.5t-37 -182t37 -182.5t100 -149.5t149.5 -100t182 -37.5t182.5 37.5t149.5 100t100 149.5t37.5 182.5t-37.5 182t-100 149.5t-149.5 100t-182 37zM512 -34q-113 0 -209 56t-151.5 151.5t-55.5 208.5t55.5 209
t151.5 151.5t209 55.5t208.5 -55.5t151.5 -151.5t56 -209t-56 -208.5t-151.5 -151.5t-208.5 -56z" />
    <glyph glyph-name="uniE64C" unicode="&#xe64c;" 
d="M512 851q-96 0 -182.5 -37t-149.5 -100t-100 -149.5t-37 -182t37 -182.5t100 -149.5t149.5 -100t182 -37.5t182.5 37.5t149.5 100t100 149.5t37.5 182.5t-37.5 182t-100 149.5t-149.5 100t-182 37zM512 54q-89 0 -164.5 44t-119.5 119.5t-44 164.5t44 164.5t119.5 119.5
t164.5 44t164.5 -44t119 -119.5t43.5 -164.5t-43.5 -164.5t-119 -119.5t-164.5 -44z" />
  </font>
</defs>
</svg>
